<svg width="48" height="48" viewBox="0 0 48 48" fill="none" xmlns="http://www.w3.org/2000/svg">
<path d="M27.4749 32.775L19.2499 24.575C19.1666 24.475 19.1082 24.379 19.0749 24.287C19.0416 24.1957 19.0249 24.1 19.0249 24C19.0249 23.9 19.0416 23.804 19.0749 23.712C19.1082 23.6207 19.1666 23.525 19.2499 23.425L27.4999 15.2C27.6332 15.05 27.7999 14.975 27.9999 14.975C28.1999 14.975 28.3749 15.0583 28.5249 15.225C28.6749 15.375 28.7499 15.554 28.7499 15.762C28.7499 15.9707 28.6749 16.1417 28.5249 16.275L20.8249 24L28.5499 31.725C28.6999 31.875 28.7749 32.0457 28.7749 32.237C28.7749 32.429 28.6916 32.6083 28.5249 32.775C28.3749 32.925 28.1999 33 27.9999 33C27.7999 33 27.6249 32.925 27.4749 32.775Z" fill="#313337"/>
</svg>
