<svg width="48" height="48" viewBox="0 0 48 48" fill="none" xmlns="http://www.w3.org/2000/svg">
<rect width="24" height="24" transform="translate(12 12)" fill="white"/>
<path d="M33.304 21.5526L26.9584 15.2023C26.173 14.4188 25.1092 13.9788 24.0002 13.9788C22.8911 13.9788 21.8273 14.4188 21.0419 15.2023L14.6963 21.5526C14.4624 21.7851 14.277 22.0618 14.1508 22.3665C14.0245 22.6713 13.96 22.9981 13.9609 23.328V31.5459C13.9609 32.2119 14.2254 32.8507 14.6961 33.3216C15.1667 33.7926 15.8051 34.0572 16.4708 34.0572H31.5296C32.1952 34.0572 32.8336 33.7926 33.3043 33.3216C33.775 32.8507 34.0394 32.2119 34.0394 31.5459V23.328C34.0403 22.9981 33.9758 22.6713 33.8496 22.3665C33.7233 22.0618 33.5379 21.7851 33.304 21.5526ZM26.51 32.383H21.4904V29.0898C21.4904 28.4238 21.7548 27.785 22.2255 27.3141C22.6961 26.8431 23.3345 26.5785 24.0002 26.5785C24.6658 26.5785 25.3042 26.8431 25.7749 27.3141C26.2455 27.785 26.51 28.4238 26.51 29.0898V32.383ZM32.3662 31.5459C32.3662 31.7679 32.278 31.9808 32.1211 32.1378C31.9642 32.2948 31.7515 32.383 31.5296 32.383H28.1832V29.0898C28.1832 27.9798 27.7425 26.9152 26.958 26.1302C26.1735 25.3453 25.1096 24.9043 24.0002 24.9043C22.8908 24.9043 21.8268 25.3453 21.0423 26.1302C20.2579 26.9152 19.8172 27.9798 19.8172 29.0898V32.383H16.4708C16.2489 32.383 16.0361 32.2948 15.8792 32.1378C15.7223 31.9808 15.6342 31.7679 15.6342 31.5459V23.328C15.6349 23.1062 15.723 22.8936 15.8793 22.7362L22.2249 16.3885C22.6965 15.9188 23.3348 15.6551 24.0002 15.6551C24.6655 15.6551 25.3038 15.9188 25.7754 16.3885L32.1211 22.7387C32.2767 22.8955 32.3647 23.1071 32.3662 23.328V31.5459Z" fill="#6B53E8"/>
</svg>
