<svg width="24" height="25" viewBox="0 0 24 25" fill="none" xmlns="http://www.w3.org/2000/svg">
<path d="M23.025 21.22L16.8375 16.195C19.3875 12.7075 19.125 7.71997 15.9375 4.56997C14.25 2.88247 12 1.94497 9.59998 1.94497C7.19998 1.94497 4.94998 2.88247 3.26248 4.56997C-0.225024 8.05747 -0.225024 13.7575 3.26248 17.245C4.94998 18.9325 7.19998 19.87 9.59998 19.87C11.8875 19.87 14.025 19.0075 15.7125 17.47L21.975 22.5325C22.125 22.645 22.3125 22.72 22.5 22.72C22.7625 22.72 22.9875 22.6075 23.1375 22.42C23.4375 22.045 23.4 21.52 23.025 21.22ZM9.59998 18.1825C7.64998 18.1825 5.84998 17.4325 4.46248 16.045C1.61248 13.195 1.61248 8.58247 4.46248 5.76997C5.84998 4.38247 7.64998 3.63247 9.59998 3.63247C11.55 3.63247 13.35 4.38247 14.7375 5.76997C17.5875 8.61997 17.5875 13.2325 14.7375 16.045C13.3875 17.4325 11.55 18.1825 9.59998 18.1825Z" fill="#6B53E8"/>
</svg>
